<svg width="1161" height="177" viewBox="0 0 1161 177" fill="none" xmlns="http://www.w3.org/2000/svg">
<path d="M152.297 67.8493H111.814C111.274 63.6931 110.168 59.9417 108.494 56.5951C106.821 53.2485 104.608 50.3877 101.855 48.0127C99.1022 45.6377 95.8366 43.8295 92.0582 42.588C88.3337 41.2925 84.2045 40.6448 79.6704 40.6448C71.6278 40.6448 64.6917 42.615 58.8621 46.5553C53.0866 50.4956 48.6334 56.1903 45.5028 63.6391C42.426 71.088 40.8877 80.1022 40.8877 90.6817C40.8877 101.693 42.453 110.923 45.5837 118.372C48.7684 125.767 53.2215 131.354 58.9431 135.132C64.7187 138.856 71.5468 140.719 79.4275 140.719C83.8536 140.719 87.8749 140.152 91.4914 139.018C95.1618 137.885 98.3735 136.239 101.126 134.079C103.933 131.866 106.227 129.195 108.008 126.064C109.844 122.879 111.112 119.29 111.814 115.295L152.297 115.538C151.595 122.879 149.463 130.112 145.9 137.237C142.392 144.362 137.561 150.866 131.408 156.75C125.254 162.579 117.751 167.222 108.899 170.676C100.101 174.131 90.007 175.858 78.6178 175.858C63.6121 175.858 50.1718 172.565 38.2968 165.98C26.4758 159.341 17.1377 149.679 10.2826 136.994C3.42747 124.31 -8.88556e-05 108.872 -8.88556e-05 90.6817C-8.88556e-05 72.4374 3.48145 56.9729 10.4445 44.2883C17.4076 31.6036 26.8266 21.9687 38.7016 15.3834C50.5766 8.7982 63.882 5.50559 78.6178 5.50559C88.6576 5.50559 97.9417 6.909 106.47 9.71582C114.998 12.4687 122.501 16.5169 128.979 21.8607C135.456 27.1505 140.719 33.6547 144.767 41.3735C148.815 49.0922 151.325 57.9175 152.297 67.8493ZM233.283 175.939C220.22 175.939 208.993 173.267 199.601 167.923C190.263 162.525 183.057 155.023 177.983 145.415C172.963 135.753 170.453 124.552 170.453 111.814C170.453 99.0212 172.963 87.8209 177.983 78.213C183.057 68.551 190.263 61.0482 199.601 55.7044C208.993 50.3067 220.22 47.6079 233.283 47.6079C246.345 47.6079 257.546 50.3067 266.884 55.7044C276.276 61.0482 283.482 68.551 288.502 78.213C293.576 87.8209 296.112 99.0212 296.112 111.814C296.112 124.552 293.576 135.753 288.502 145.415C283.482 155.023 276.276 162.525 266.884 167.923C257.546 173.267 246.345 175.939 233.283 175.939ZM233.526 146.062C238.276 146.062 242.297 144.605 245.59 141.69C248.882 138.775 251.392 134.727 253.12 129.545C254.901 124.364 255.791 118.372 255.791 111.571C255.791 104.662 254.901 98.6164 253.12 93.4346C251.392 88.2528 248.882 84.2045 245.59 81.2897C242.297 78.3749 238.276 76.9175 233.526 76.9175C228.614 76.9175 224.458 78.3749 221.057 81.2897C217.71 84.2045 215.147 88.2528 213.365 93.4346C211.638 98.6164 210.774 104.662 210.774 111.571C210.774 118.372 211.638 124.364 213.365 129.545C215.147 134.727 217.71 138.775 221.057 141.69C224.458 144.605 228.614 146.062 233.526 146.062ZM361.816 175.372C352.64 175.372 344.301 172.997 336.798 168.247C329.295 163.497 323.304 156.372 318.823 146.872C314.343 137.372 312.103 125.578 312.103 111.49C312.103 96.8621 314.424 84.8252 319.066 75.3792C323.708 65.9331 329.781 58.9431 337.284 54.409C344.84 49.8749 352.964 47.6079 361.654 47.6079C368.186 47.6079 373.772 48.7414 378.414 51.0084C383.056 53.2215 386.889 56.0823 389.911 59.5908C392.934 63.0993 395.228 66.7428 396.794 70.5212H397.603V7.77263H437.196V173.591H398.008V153.43H396.794C395.12 157.263 392.745 160.852 389.669 164.199C386.592 167.545 382.733 170.244 378.09 172.295C373.502 174.347 368.078 175.372 361.816 175.372ZM375.581 144.524C380.385 144.524 384.487 143.175 387.887 140.476C391.288 137.723 393.906 133.864 395.741 128.898C397.576 123.932 398.494 118.102 398.494 111.409C398.494 104.608 397.576 98.7513 395.741 93.8394C393.96 88.9275 391.342 85.1491 387.887 82.5042C384.487 79.8593 380.385 78.5368 375.581 78.5368C370.669 78.5368 366.512 79.8863 363.112 82.5851C359.711 85.284 357.12 89.0894 355.339 94.0013C353.612 98.9133 352.748 104.716 352.748 111.409C352.748 118.102 353.639 123.932 355.42 128.898C357.201 133.864 359.765 137.723 363.112 140.476C366.512 143.175 370.669 144.524 375.581 144.524ZM520.368 175.939C507.359 175.939 496.132 173.375 486.686 168.247C477.294 163.065 470.061 155.697 464.987 146.143C459.967 136.535 457.457 125.119 457.457 111.895C457.457 99.0482 459.994 87.8209 465.068 78.213C470.142 68.551 477.294 61.0482 486.524 55.7044C495.754 50.3067 506.631 47.6079 519.153 47.6079C528.006 47.6079 536.102 48.9843 543.443 51.7371C550.784 54.49 557.126 58.5652 562.47 63.963C567.814 69.3607 571.97 76.0269 574.939 83.9616C577.908 91.8422 579.392 100.883 579.392 111.085V120.963H471.302V97.9687H542.552C542.498 93.7584 541.5 90.007 539.557 86.7144C537.614 83.4218 534.942 80.8579 531.541 79.0226C528.195 77.1334 524.335 76.1888 519.963 76.1888C515.537 76.1888 511.57 77.1874 508.061 79.1846C504.552 81.1278 501.773 83.7996 499.722 87.2002C497.67 90.5468 496.591 94.3522 496.483 98.6164V122.016C496.483 127.089 497.481 131.543 499.479 135.375C501.476 139.153 504.31 142.095 507.98 144.2C511.65 146.305 516.023 147.358 521.097 147.358C524.605 147.358 527.79 146.872 530.65 145.9C533.511 144.929 535.967 143.498 538.018 141.609C540.07 139.72 541.608 137.399 542.633 134.646L578.987 135.699C577.476 143.849 574.156 150.947 569.028 156.993C563.954 162.984 557.288 167.653 549.03 171C540.771 174.293 531.217 175.939 520.368 175.939ZM750.129 67.8493H709.646C709.106 63.6931 708 59.9417 706.326 56.5951C704.653 53.2485 702.44 50.3877 699.687 48.0127C696.934 45.6377 693.669 43.8295 689.89 42.588C686.166 41.2925 682.036 40.6448 677.502 40.6448C669.46 40.6448 662.524 42.615 656.694 46.5553C650.919 50.4956 646.465 56.1903 643.335 63.6391C640.258 71.088 638.72 80.1022 638.72 90.6817C638.72 101.693 640.285 110.923 643.416 118.372C646.6 125.767 651.054 131.354 656.775 135.132C662.551 138.856 669.379 140.719 677.259 140.719C681.686 140.719 685.707 140.152 689.323 139.018C692.994 137.885 696.206 136.239 698.958 134.079C701.765 131.866 704.059 129.195 705.84 126.064C707.676 122.879 708.944 119.29 709.646 115.295L750.129 115.538C749.427 122.879 747.295 130.112 743.733 137.237C740.224 144.362 735.393 150.866 729.24 156.75C723.086 162.579 715.583 167.222 706.731 170.676C697.933 174.131 687.839 175.858 676.45 175.858C661.444 175.858 648.004 172.565 636.129 165.98C624.308 159.341 614.97 149.679 608.115 136.994C601.259 124.31 597.832 108.872 597.832 90.6817C597.832 72.4374 601.313 56.9729 608.277 44.2883C615.24 31.6036 624.659 21.9687 636.534 15.3834C648.409 8.7982 661.714 5.50559 676.45 5.50559C686.49 5.50559 695.774 6.909 704.302 9.71582C712.831 12.4687 720.333 16.5169 726.811 21.8607C733.288 27.1505 738.551 33.6547 742.599 41.3735C746.647 49.0922 749.157 57.9175 750.129 67.8493ZM773.062 173.591V49.2272H811.521V71.8976H812.817C815.084 63.6931 818.781 57.5937 823.909 53.5993C829.037 49.551 835.001 47.5269 841.802 47.5269C843.638 47.5269 845.527 47.6618 847.47 47.9317C849.413 48.1476 851.222 48.4985 852.895 48.9843V83.3948C851.006 82.7471 848.523 82.2343 845.446 81.8564C842.423 81.4786 839.724 81.2897 837.349 81.2897C832.653 81.2897 828.416 82.3422 824.638 84.4474C820.913 86.4985 817.972 89.3863 815.812 93.1107C813.707 96.7812 812.655 101.099 812.655 106.065V173.591H773.062ZM899.41 175.696C891.475 175.696 884.431 174.373 878.278 171.729C872.178 169.03 867.347 164.981 863.785 159.584C860.276 154.132 858.522 147.304 858.522 139.099C858.522 132.19 859.736 126.361 862.165 121.611C864.594 116.861 867.941 113.001 872.205 110.033C876.469 107.064 881.381 104.824 886.941 103.312C892.501 101.747 898.438 100.695 904.753 100.155C911.824 99.507 917.519 98.8323 921.837 98.1306C926.155 97.3749 929.286 96.3224 931.229 94.9729C933.226 93.5695 934.225 91.5993 934.225 89.0624V88.6576C934.225 84.5013 932.795 81.2897 929.934 79.0226C927.073 76.7556 923.214 75.6221 918.356 75.6221C913.12 75.6221 908.91 76.7556 905.725 79.0226C902.54 81.2897 900.516 84.4204 899.653 88.4147L863.137 87.1192C864.217 79.5624 866.996 72.8153 871.476 66.8778C876.011 60.8863 882.218 56.1903 890.099 52.7897C898.033 49.3351 907.56 47.6079 918.68 47.6079C926.614 47.6079 933.928 48.5525 940.621 50.4417C947.315 52.2769 953.144 54.9758 958.11 58.5383C963.076 62.0468 966.908 66.365 969.607 71.4928C972.36 76.6206 973.736 82.4772 973.736 89.0624V173.591H936.492V156.264H935.521C933.307 160.474 930.474 164.037 927.019 166.952C923.619 169.866 919.597 172.052 914.955 173.51C910.367 174.967 905.185 175.696 899.41 175.696ZM911.636 149.787C915.9 149.787 919.732 148.923 923.133 147.196C926.587 145.469 929.34 143.094 931.391 140.071C933.442 136.994 934.468 133.432 934.468 129.383V117.562C933.334 118.156 931.958 118.696 930.339 119.182C928.773 119.668 927.046 120.126 925.157 120.558C923.268 120.99 921.324 121.368 919.327 121.692C917.33 122.016 915.414 122.312 913.579 122.582C909.854 123.176 906.67 124.094 904.025 125.335C901.434 126.577 899.437 128.196 898.033 130.193C896.684 132.136 896.009 134.457 896.009 137.156C896.009 141.258 897.467 144.389 900.381 146.548C903.35 148.707 907.101 149.787 911.636 149.787ZM1068.63 49.2272V78.3749H988.634V49.2272H1068.63ZM1005.31 173.591V42.9118C1005.31 33.3039 1007.12 25.3422 1010.74 19.0269C1014.35 12.6576 1019.37 7.90758 1025.8 4.7769C1032.22 1.59223 1039.64 -9.98974e-05 1048.06 -9.98974e-05C1053.57 -9.98974e-05 1058.75 0.431722 1063.61 1.29537C1068.52 2.10502 1072.16 2.83372 1074.54 3.48145L1068.22 32.4672C1066.77 31.9814 1064.98 31.5766 1062.88 31.2527C1060.83 30.9289 1058.89 30.7669 1057.05 30.7669C1052.41 30.7669 1049.22 31.7925 1047.5 33.8437C1045.77 35.8948 1044.91 38.7016 1044.91 42.2641V173.591H1005.31ZM1157.87 49.2272V78.3749H1079.42V49.2272H1157.87ZM1095.85 19.4317H1135.45V134.484C1135.45 136.913 1135.82 138.883 1136.58 140.395C1137.39 141.852 1138.55 142.905 1140.06 143.552C1141.57 144.146 1143.38 144.443 1145.49 144.443C1147 144.443 1148.59 144.308 1150.26 144.038C1151.99 143.714 1153.29 143.445 1154.15 143.229L1160.14 171.81C1158.25 172.349 1155.58 173.024 1152.12 173.834C1148.72 174.643 1144.65 175.156 1139.9 175.372C1130.61 175.804 1122.65 174.724 1116.01 172.133C1109.43 169.489 1104.38 165.386 1100.87 159.827C1097.42 154.267 1095.75 147.277 1095.85 138.856V19.4317Z" fill="white"/>
</svg>
