<svg width="1268" height="177" viewBox="0 0 1268 177" fill="none" xmlns="http://www.w3.org/2000/svg">
<path d="M152.297 67.8493H111.814C111.274 63.6931 110.168 59.9417 108.494 56.5951C106.821 53.2485 104.608 50.3877 101.855 48.0127C99.1022 45.6377 95.8366 43.8295 92.0582 42.588C88.3337 41.2925 84.2045 40.6448 79.6704 40.6448C71.6278 40.6448 64.6917 42.615 58.8621 46.5553C53.0866 50.4956 48.6334 56.1903 45.5028 63.6391C42.426 71.088 40.8877 80.1022 40.8877 90.6817C40.8877 101.693 42.453 110.923 45.5837 118.372C48.7684 125.767 53.2215 131.354 58.9431 135.132C64.7187 138.856 71.5468 140.719 79.4275 140.719C83.8536 140.719 87.8749 140.152 91.4914 139.018C95.1618 137.885 98.3735 136.239 101.126 134.079C103.933 131.866 106.227 129.195 108.008 126.064C109.844 122.879 111.112 119.29 111.814 115.295L152.297 115.538C151.595 122.879 149.463 130.112 145.9 137.237C142.392 144.362 137.561 150.866 131.408 156.75C125.254 162.579 117.751 167.222 108.899 170.676C100.101 174.131 90.007 175.858 78.6178 175.858C63.6121 175.858 50.1718 172.565 38.2968 165.98C26.4758 159.341 17.1377 149.679 10.2826 136.994C3.42747 124.31 -8.88556e-05 108.872 -8.88556e-05 90.6817C-8.88556e-05 72.4374 3.48145 56.9729 10.4445 44.2883C17.4076 31.6036 26.8266 21.9687 38.7016 15.3834C50.5766 8.7982 63.882 5.50559 78.6178 5.50559C88.6576 5.50559 97.9417 6.909 106.47 9.71582C114.998 12.4687 122.501 16.5169 128.979 21.8607C135.456 27.1505 140.719 33.6547 144.767 41.3735C148.815 49.0922 151.325 57.9175 152.297 67.8493ZM233.283 175.939C220.22 175.939 208.993 173.267 199.601 167.923C190.263 162.525 183.057 155.023 177.983 145.415C172.963 135.753 170.453 124.552 170.453 111.814C170.453 99.0212 172.963 87.8209 177.983 78.213C183.057 68.551 190.263 61.0482 199.601 55.7044C208.993 50.3067 220.22 47.6079 233.283 47.6079C246.345 47.6079 257.546 50.3067 266.884 55.7044C276.276 61.0482 283.482 68.551 288.502 78.213C293.576 87.8209 296.112 99.0212 296.112 111.814C296.112 124.552 293.576 135.753 288.502 145.415C283.482 155.023 276.276 162.525 266.884 167.923C257.546 173.267 246.345 175.939 233.283 175.939ZM233.526 146.062C238.276 146.062 242.297 144.605 245.59 141.69C248.882 138.775 251.392 134.727 253.12 129.545C254.901 124.364 255.791 118.372 255.791 111.571C255.791 104.662 254.901 98.6164 253.12 93.4346C251.392 88.2528 248.882 84.2045 245.59 81.2897C242.297 78.3749 238.276 76.9175 233.526 76.9175C228.614 76.9175 224.458 78.3749 221.057 81.2897C217.71 84.2045 215.147 88.2528 213.365 93.4346C211.638 98.6164 210.774 104.662 210.774 111.571C210.774 118.372 211.638 124.364 213.365 129.545C215.147 134.727 217.71 138.775 221.057 141.69C224.458 144.605 228.614 146.062 233.526 146.062ZM361.816 175.372C352.64 175.372 344.301 172.997 336.798 168.247C329.295 163.497 323.304 156.372 318.823 146.872C314.343 137.372 312.103 125.578 312.103 111.49C312.103 96.8621 314.424 84.8252 319.066 75.3792C323.708 65.9331 329.781 58.9431 337.284 54.409C344.84 49.8749 352.964 47.6079 361.654 47.6079C368.186 47.6079 373.772 48.7414 378.414 51.0084C383.056 53.2215 386.889 56.0823 389.911 59.5908C392.934 63.0993 395.228 66.7428 396.794 70.5212H397.603V7.77263H437.196V173.591H398.008V153.43H396.794C395.12 157.263 392.745 160.852 389.669 164.199C386.592 167.545 382.733 170.244 378.09 172.295C373.502 174.347 368.078 175.372 361.816 175.372ZM375.581 144.524C380.385 144.524 384.487 143.175 387.887 140.476C391.288 137.723 393.906 133.864 395.741 128.898C397.576 123.932 398.494 118.102 398.494 111.409C398.494 104.608 397.576 98.7513 395.741 93.8394C393.96 88.9275 391.342 85.1491 387.887 82.5042C384.487 79.8593 380.385 78.5368 375.581 78.5368C370.669 78.5368 366.512 79.8863 363.112 82.5851C359.711 85.284 357.12 89.0894 355.339 94.0013C353.612 98.9133 352.748 104.716 352.748 111.409C352.748 118.102 353.639 123.932 355.42 128.898C357.201 133.864 359.765 137.723 363.112 140.476C366.512 143.175 370.669 144.524 375.581 144.524ZM520.368 175.939C507.359 175.939 496.132 173.375 486.686 168.247C477.294 163.065 470.061 155.697 464.987 146.143C459.967 136.535 457.457 125.119 457.457 111.895C457.457 99.0482 459.994 87.8209 465.068 78.213C470.142 68.551 477.294 61.0482 486.524 55.7044C495.754 50.3067 506.631 47.6079 519.153 47.6079C528.006 47.6079 536.102 48.9843 543.443 51.7371C550.784 54.49 557.126 58.5652 562.47 63.963C567.814 69.3607 571.97 76.0269 574.939 83.9616C577.908 91.8422 579.392 100.883 579.392 111.085V120.963H471.302V97.9687H542.552C542.498 93.7584 541.5 90.007 539.557 86.7144C537.614 83.4218 534.942 80.8579 531.541 79.0226C528.195 77.1334 524.335 76.1888 519.963 76.1888C515.537 76.1888 511.57 77.1874 508.061 79.1846C504.552 81.1278 501.773 83.7996 499.722 87.2002C497.67 90.5468 496.591 94.3522 496.483 98.6164V122.016C496.483 127.089 497.481 131.543 499.479 135.375C501.476 139.153 504.31 142.095 507.98 144.2C511.65 146.305 516.023 147.358 521.097 147.358C524.605 147.358 527.79 146.872 530.65 145.9C533.511 144.929 535.967 143.498 538.018 141.609C540.07 139.72 541.608 137.399 542.633 134.646L578.987 135.699C577.476 143.849 574.156 150.947 569.028 156.993C563.954 162.984 557.288 167.653 549.03 171C540.771 174.293 531.217 175.939 520.368 175.939ZM679.203 91.2485V121.773H602.447V91.2485H679.203ZM857.672 67.8493H817.189C816.649 63.6931 815.543 59.9417 813.869 56.5951C812.196 53.2485 809.983 50.3877 807.23 48.0127C804.477 45.6377 801.212 43.8295 797.433 42.588C793.709 41.2925 789.579 40.6448 785.045 40.6448C777.003 40.6448 770.067 42.615 764.237 46.5553C758.462 50.4956 754.008 56.1903 750.878 63.6391C747.801 71.088 746.263 80.1022 746.263 90.6817C746.263 101.693 747.828 110.923 750.959 118.372C754.143 125.767 758.597 131.354 764.318 135.132C770.094 138.856 776.922 140.719 784.802 140.719C789.229 140.719 793.25 140.152 796.866 139.018C800.537 137.885 803.748 136.239 806.501 134.079C809.308 131.866 811.602 129.195 813.383 126.064C815.219 122.879 816.487 119.29 817.189 115.295L857.672 115.538C856.97 122.879 854.838 130.112 851.275 137.237C847.767 144.362 842.936 150.866 836.783 156.75C830.629 162.579 823.126 167.222 814.274 170.676C805.476 174.131 795.382 175.858 783.993 175.858C768.987 175.858 755.547 172.565 743.672 165.98C731.851 159.341 722.513 149.679 715.658 136.994C708.802 124.31 705.375 108.872 705.375 90.6817C705.375 72.4374 708.856 56.9729 715.82 44.2883C722.783 31.6036 732.202 21.9687 744.077 15.3834C755.952 8.7982 769.257 5.50559 783.993 5.50559C794.033 5.50559 803.317 6.909 811.845 9.71582C820.373 12.4687 827.876 16.5169 834.354 21.8607C840.831 27.1505 846.094 33.6547 850.142 41.3735C854.19 49.0922 856.7 57.9175 857.672 67.8493ZM880.605 173.591V49.2272H919.064V71.8976H920.36C922.627 63.6931 926.324 57.5937 931.452 53.5993C936.58 49.551 942.544 47.5269 949.345 47.5269C951.181 47.5269 953.07 47.6618 955.013 47.9317C956.956 48.1476 958.764 48.4985 960.438 48.9843V83.3948C958.549 82.7471 956.066 82.2343 952.989 81.8564C949.966 81.4786 947.267 81.2897 944.892 81.2897C940.196 81.2897 935.959 82.3422 932.181 84.4474C928.456 86.4985 925.514 89.3863 923.355 93.1107C921.25 96.7812 920.198 101.099 920.198 106.065V173.591H880.605ZM1006.95 175.696C999.018 175.696 991.974 174.373 985.821 171.729C979.721 169.03 974.89 164.981 971.328 159.584C967.819 154.132 966.065 147.304 966.065 139.099C966.065 132.19 967.279 126.361 969.708 121.611C972.137 116.861 975.484 113.001 979.748 110.033C984.012 107.064 988.924 104.824 994.484 103.312C1000.04 101.747 1005.98 100.695 1012.3 100.155C1019.37 99.507 1025.06 98.8323 1029.38 98.1306C1033.7 97.3749 1036.83 96.3224 1038.77 94.9729C1040.77 93.5695 1041.77 91.5993 1041.77 89.0624V88.6576C1041.77 84.5013 1040.34 81.2897 1037.48 79.0226C1034.62 76.7556 1030.76 75.6221 1025.9 75.6221C1020.66 75.6221 1016.45 76.7556 1013.27 79.0226C1010.08 81.2897 1008.06 84.4204 1007.2 88.4147L970.68 87.1192C971.759 79.5624 974.539 72.8153 979.019 66.8778C983.554 60.8863 989.761 56.1903 997.642 52.7897C1005.58 49.3351 1015.1 47.6079 1026.22 47.6079C1034.16 47.6079 1041.47 48.5525 1048.16 50.4417C1054.86 52.2769 1060.69 54.9758 1065.65 58.5383C1070.62 62.0468 1074.45 66.365 1077.15 71.4928C1079.9 76.6206 1081.28 82.4772 1081.28 89.0624V173.591H1044.04V156.264H1043.06C1040.85 160.474 1038.02 164.037 1034.56 166.952C1031.16 169.866 1027.14 172.052 1022.5 173.51C1017.91 174.967 1012.73 175.696 1006.95 175.696ZM1019.18 149.787C1023.44 149.787 1027.28 148.923 1030.68 147.196C1034.13 145.469 1036.88 143.094 1038.93 140.071C1040.99 136.994 1042.01 133.432 1042.01 129.383V117.562C1040.88 118.156 1039.5 118.696 1037.88 119.182C1036.32 119.668 1034.59 120.126 1032.7 120.558C1030.81 120.99 1028.87 121.368 1026.87 121.692C1024.87 122.016 1022.96 122.312 1021.12 122.582C1017.4 123.176 1014.21 124.094 1011.57 125.335C1008.98 126.577 1006.98 128.196 1005.58 130.193C1004.23 132.136 1003.55 134.457 1003.55 137.156C1003.55 141.258 1005.01 144.389 1007.92 146.548C1010.89 148.707 1014.64 149.787 1019.18 149.787ZM1176.17 49.2272V78.3749H1096.18V49.2272H1176.17ZM1112.86 173.591V42.9118C1112.86 33.3039 1114.66 25.3422 1118.28 19.0269C1121.9 12.6576 1126.92 7.90758 1133.34 4.7769C1139.76 1.59223 1147.19 -9.98974e-05 1155.61 -9.98974e-05C1161.11 -9.98974e-05 1166.29 0.431722 1171.15 1.29537C1176.06 2.10502 1179.71 2.83372 1182.08 3.48145L1175.77 32.4672C1174.31 31.9814 1172.53 31.5766 1170.42 31.2527C1168.37 30.9289 1166.43 30.7669 1164.59 30.7669C1159.95 30.7669 1156.77 31.7925 1155.04 33.8437C1153.31 35.8948 1152.45 38.7016 1152.45 42.2641V173.591H1112.86ZM1265.42 49.2272V78.3749H1186.96V49.2272H1265.42ZM1203.4 19.4317H1242.99V134.484C1242.99 136.913 1243.37 138.883 1244.12 140.395C1244.93 141.852 1246.09 142.905 1247.6 143.552C1249.11 144.146 1250.92 144.443 1253.03 144.443C1254.54 144.443 1256.13 144.308 1257.81 144.038C1259.53 143.714 1260.83 143.445 1261.69 143.229L1267.68 171.81C1265.79 172.349 1263.12 173.024 1259.67 173.834C1256.27 174.643 1252.19 175.156 1247.44 175.372C1238.16 175.804 1230.2 174.724 1223.56 172.133C1216.97 169.489 1211.92 165.386 1208.42 159.827C1204.96 154.267 1203.29 147.277 1203.4 138.856V19.4317Z" fill="white"/>
</svg>
