<svg width="181" height="56" viewBox="0 0 181 56" fill="none" xmlns="http://www.w3.org/2000/svg">
<rect width="127" height="25" fill="#0DFE5B"/>
<path d="M10.7537 7.81818V18H9.21744V7.81818H10.7537ZM14.9181 13.4659V18H13.4316V10.3636H14.8584V11.6065H14.9529C15.1285 11.2022 15.4036 10.8774 15.7781 10.6321C16.156 10.3868 16.6316 10.2642 17.205 10.2642C17.7254 10.2642 18.1811 10.3736 18.5722 10.5923C18.9633 10.8078 19.2665 11.1293 19.482 11.5568C19.6974 11.9844 19.8051 12.513 19.8051 13.1428V18H18.3186V13.3217C18.3186 12.7682 18.1745 12.3357 17.8861 12.0241C17.5977 11.7093 17.2017 11.5518 16.6979 11.5518C16.3532 11.5518 16.0466 11.6264 15.7781 11.7756C15.513 11.9247 15.3025 12.1435 15.1468 12.4318C14.9943 12.7169 14.9181 13.0616 14.9181 13.4659ZM22.3587 18V10.3636H23.8452V18H22.3587ZM22.4979 9.34446L23.6613 7.05256H25.2273L23.6862 9.34446H22.4979ZM29.6217 18.1541C28.8826 18.1541 28.2462 17.9867 27.7126 17.652C27.1823 17.3139 26.7746 16.8482 26.4896 16.255C26.2045 15.6617 26.062 14.9822 26.062 14.2166C26.062 13.4411 26.2079 12.7566 26.4995 12.1634C26.7912 11.5668 27.2022 11.1011 27.7325 10.7663C28.2628 10.4316 28.8876 10.2642 29.6068 10.2642C30.1868 10.2642 30.7038 10.3719 31.1579 10.5874C31.612 10.7995 31.9782 11.0978 32.2566 11.4822C32.5384 11.8667 32.7057 12.3158 32.7588 12.8295H31.312C31.2325 12.4716 31.0502 12.1634 30.7652 11.9048C30.4834 11.6463 30.1056 11.517 29.6316 11.517C29.2173 11.517 28.8544 11.6264 28.5429 11.8452C28.2346 12.0606 27.9943 12.3688 27.822 12.7699C27.6496 13.1676 27.5635 13.6383 27.5635 14.1818C27.5635 14.7386 27.648 15.2192 27.817 15.6236C27.986 16.0279 28.2247 16.3411 28.5329 16.5632C28.8445 16.7853 29.2107 16.8963 29.6316 16.8963C29.9134 16.8963 30.1686 16.8449 30.3973 16.7422C30.6293 16.6361 30.8232 16.4853 30.9789 16.2898C31.138 16.0942 31.2491 15.8589 31.312 15.5838H32.7588C32.7057 16.0777 32.545 16.5185 32.2765 16.9062C32.0081 17.294 31.6484 17.599 31.1977 17.821C30.7502 18.0431 30.2249 18.1541 29.6217 18.1541ZM34.9084 18V10.3636H36.3949V18H34.9084ZM35.6591 9.18537C35.4006 9.18537 35.1786 9.09919 34.9929 8.92685C34.8107 8.75118 34.7195 8.54238 34.7195 8.30043C34.7195 8.05516 34.8107 7.84635 34.9929 7.67401C35.1786 7.49834 35.4006 7.41051 35.6591 7.41051C35.9177 7.41051 36.1381 7.49834 36.3204 7.67401C36.506 7.84635 36.5988 8.05516 36.5988 8.30043C36.5988 8.54238 36.506 8.75118 36.3204 8.92685C36.1381 9.09919 35.9177 9.18537 35.6591 9.18537ZM42.1714 18.1541C41.4555 18.1541 40.8307 17.9901 40.2971 17.6619C39.7635 17.3338 39.3492 16.8748 39.0542 16.2848C38.7592 15.6948 38.6117 15.0054 38.6117 14.2166C38.6117 13.4245 38.7592 12.7318 39.0542 12.1385C39.3492 11.5452 39.7635 11.0845 40.2971 10.7564C40.8307 10.4283 41.4555 10.2642 42.1714 10.2642C42.8873 10.2642 43.512 10.4283 44.0457 10.7564C44.5793 11.0845 44.9936 11.5452 45.2886 12.1385C45.5835 12.7318 45.731 13.4245 45.731 14.2166C45.731 15.0054 45.5835 15.6948 45.2886 16.2848C44.9936 16.8748 44.5793 17.3338 44.0457 17.6619C43.512 17.9901 42.8873 18.1541 42.1714 18.1541ZM42.1763 16.9062C42.6404 16.9062 43.0248 16.7836 43.3298 16.5384C43.6347 16.2931 43.8601 15.9666 44.0059 15.5589C44.155 15.1513 44.2296 14.7022 44.2296 14.2116C44.2296 13.7244 44.155 13.277 44.0059 12.8693C43.8601 12.4583 43.6347 12.1286 43.3298 11.88C43.0248 11.6314 42.6404 11.5071 42.1763 11.5071C41.709 11.5071 41.3212 11.6314 41.013 11.88C40.7081 12.1286 40.481 12.4583 40.3319 12.8693C40.1861 13.277 40.1131 13.7244 40.1131 14.2116C40.1131 14.7022 40.1861 15.1513 40.3319 15.5589C40.481 15.9666 40.7081 16.2931 41.013 16.5384C41.3212 16.7836 41.709 16.9062 42.1763 16.9062ZM55.074 18.1491C54.4576 18.1491 53.9074 17.9917 53.4235 17.6768C52.9429 17.3587 52.565 16.9062 52.29 16.3196C52.0182 15.7296 51.8823 15.022 51.8823 14.1967C51.8823 13.3714 52.0198 12.6655 52.2949 12.0788C52.5733 11.4922 52.9545 11.0431 53.4384 10.7315C53.9223 10.42 54.4708 10.2642 55.084 10.2642C55.5579 10.2642 55.9391 10.3438 56.2275 10.5028C56.5191 10.6586 56.7445 10.8409 56.9036 11.0497C57.066 11.2585 57.1919 11.4425 57.2814 11.6016H57.3709V7.81818H58.8574V18H57.4057V16.8118H57.2814C57.1919 16.9742 57.0627 17.1598 56.8936 17.3686C56.7279 17.5774 56.4992 17.7597 56.2076 17.9155C55.9159 18.0713 55.5381 18.1491 55.074 18.1491ZM55.4022 16.8814C55.8297 16.8814 56.191 16.7687 56.486 16.5433C56.7843 16.3146 57.0097 15.9981 57.1621 15.5938C57.3179 15.1894 57.3958 14.7187 57.3958 14.1818C57.3958 13.6515 57.3195 13.1875 57.1671 12.7898C57.0146 12.392 56.7909 12.0821 56.4959 11.8601C56.2009 11.638 55.8364 11.527 55.4022 11.527C54.9547 11.527 54.5819 11.643 54.2836 11.875C53.9853 12.107 53.7599 12.4235 53.6074 12.8246C53.4583 13.2256 53.3837 13.678 53.3837 14.1818C53.3837 14.6922 53.4599 15.1513 53.6124 15.5589C53.7649 15.9666 53.9902 16.2898 54.2885 16.5284C54.5901 16.7637 54.9614 16.8814 55.4022 16.8814ZM63.7614 18.169C63.2775 18.169 62.84 18.0795 62.4489 17.9006C62.0578 17.7183 61.7479 17.4548 61.5192 17.1101C61.2938 16.7654 61.1811 16.3428 61.1811 15.8423C61.1811 15.4115 61.264 15.0568 61.4297 14.7784C61.5954 14.5 61.8191 14.2796 62.1008 14.1172C62.3826 13.9548 62.6974 13.8321 63.0454 13.7493C63.3935 13.6664 63.7481 13.6035 64.1094 13.5604C64.5668 13.5073 64.938 13.4643 65.223 13.4311C65.508 13.3946 65.7152 13.3366 65.8445 13.2571C65.9737 13.1776 66.0383 13.0483 66.0383 12.8693V12.8345C66.0383 12.4003 65.9157 12.0639 65.6704 11.8253C65.4285 11.5866 65.0672 11.4673 64.5866 11.4673C64.0862 11.4673 63.6918 11.5784 63.4034 11.8004C63.1184 12.0192 62.9212 12.2628 62.8118 12.5312L61.4148 12.2131C61.5805 11.7491 61.8224 11.3745 62.1406 11.0895C62.4621 10.8011 62.8317 10.5923 63.2493 10.4631C63.6669 10.3305 64.1061 10.2642 64.5668 10.2642C64.8717 10.2642 65.1948 10.3007 65.5362 10.3736C65.8809 10.4432 66.2024 10.5724 66.5007 10.7614C66.8023 10.9503 67.0492 11.2204 67.2415 11.5717C67.4337 11.9197 67.5298 12.3722 67.5298 12.929V18H66.0781V16.956H66.0185C65.9223 17.1482 65.7782 17.3371 65.5859 17.5227C65.3937 17.7083 65.1468 17.8625 64.8452 17.9851C64.5436 18.1077 64.1823 18.169 63.7614 18.169ZM64.0845 16.9759C64.4955 16.9759 64.8468 16.8946 65.1385 16.7322C65.4335 16.5698 65.6572 16.3577 65.8097 16.0959C65.9654 15.8307 66.0433 15.5473 66.0433 15.2457V14.2614C65.9903 14.3144 65.8875 14.3641 65.7351 14.4105C65.5859 14.4536 65.4152 14.4917 65.223 14.5249C65.0308 14.5547 64.8435 14.5829 64.6612 14.6094C64.4789 14.6326 64.3265 14.6525 64.2038 14.669C63.9155 14.7055 63.652 14.7668 63.4133 14.853C63.178 14.9392 62.9891 15.0634 62.8466 15.2259C62.7074 15.3849 62.6378 15.5971 62.6378 15.8622C62.6378 16.2301 62.7737 16.5085 63.0454 16.6974C63.3172 16.883 63.6636 16.9759 64.0845 16.9759ZM75.7921 12.228L74.4448 12.4666C74.3884 12.2943 74.2989 12.1302 74.1763 11.9744C74.057 11.8187 73.8946 11.6911 73.6891 11.5916C73.4836 11.4922 73.2267 11.4425 72.9185 11.4425C72.4976 11.4425 72.1462 11.5369 71.8645 11.7259C71.5828 11.9115 71.4419 12.1518 71.4419 12.4467C71.4419 12.7019 71.5364 12.9074 71.7253 13.0632C71.9142 13.219 72.2191 13.3466 72.6401 13.446L73.8531 13.7244C74.5558 13.8868 75.0795 14.1371 75.4242 14.4751C75.7689 14.8132 75.9412 15.2524 75.9412 15.7926C75.9412 16.25 75.8086 16.6577 75.5435 17.0156C75.2816 17.3703 74.9154 17.6487 74.4448 17.8509C73.9774 18.053 73.4355 18.1541 72.819 18.1541C71.9639 18.1541 71.2663 17.9718 70.726 17.6072C70.1858 17.2393 69.8543 16.7173 69.7317 16.0412L71.1685 15.8224C71.258 16.197 71.4419 16.4804 71.7203 16.6726C71.9987 16.8615 72.3617 16.956 72.8091 16.956C73.2963 16.956 73.6858 16.8549 73.9774 16.6527C74.2691 16.4472 74.4149 16.197 74.4149 15.902C74.4149 15.6634 74.3254 15.4628 74.1465 15.3004C73.9708 15.138 73.7007 15.0154 73.3361 14.9325L72.0435 14.6491C71.3309 14.4867 70.8039 14.2282 70.4625 13.8736C70.1244 13.5189 69.9554 13.0698 69.9554 12.5263C69.9554 12.0755 70.0814 11.6811 70.3333 11.343C70.5851 11.005 70.9332 10.7415 71.3773 10.5526C71.8214 10.3603 72.3302 10.2642 72.9036 10.2642C73.7288 10.2642 74.3785 10.4432 74.8524 10.8011C75.3264 11.1558 75.6396 11.6314 75.7921 12.228ZM84.623 18.169C84.1391 18.169 83.7016 18.0795 83.3105 17.9006C82.9194 17.7183 82.6095 17.4548 82.3808 17.1101C82.1554 16.7654 82.0427 16.3428 82.0427 15.8423C82.0427 15.4115 82.1256 15.0568 82.2913 14.7784C82.457 14.5 82.6808 14.2796 82.9625 14.1172C83.2442 13.9548 83.5591 13.8321 83.9071 13.7493C84.2551 13.6664 84.6097 13.6035 84.971 13.5604C85.4284 13.5073 85.7996 13.4643 86.0847 13.4311C86.3697 13.3946 86.5768 13.3366 86.7061 13.2571C86.8354 13.1776 86.9 13.0483 86.9 12.8693V12.8345C86.9 12.4003 86.7774 12.0639 86.5321 11.8253C86.2901 11.5866 85.9289 11.4673 85.4483 11.4673C84.9478 11.4673 84.5534 11.5784 84.265 11.8004C83.98 12.0192 83.7828 12.2628 83.6734 12.5312L82.2764 12.2131C82.4421 11.7491 82.6841 11.3745 83.0023 11.0895C83.3238 10.8011 83.6933 10.5923 84.1109 10.4631C84.5285 10.3305 84.9677 10.2642 85.4284 10.2642C85.7333 10.2642 86.0565 10.3007 86.3979 10.3736C86.7426 10.4432 87.0641 10.5724 87.3624 10.7614C87.664 10.9503 87.9109 11.2204 88.1031 11.5717C88.2954 11.9197 88.3915 12.3722 88.3915 12.929V18H86.9398V16.956H86.8801C86.784 17.1482 86.6398 17.3371 86.4476 17.5227C86.2553 17.7083 86.0084 17.8625 85.7068 17.9851C85.4052 18.1077 85.0439 18.169 84.623 18.169ZM84.9462 16.9759C85.3571 16.9759 85.7085 16.8946 86.0001 16.7322C86.2951 16.5698 86.5188 16.3577 86.6713 16.0959C86.8271 15.8307 86.905 15.5473 86.905 15.2457V14.2614C86.8519 14.3144 86.7492 14.3641 86.5967 14.4105C86.4476 14.4536 86.2769 14.4917 86.0847 14.5249C85.8924 14.5547 85.7052 14.5829 85.5229 14.6094C85.3406 14.6326 85.1881 14.6525 85.0655 14.669C84.7771 14.7055 84.5136 14.7668 84.275 14.853C84.0397 14.9392 83.8508 15.0634 83.7082 15.2259C83.569 15.3849 83.4994 15.5971 83.4994 15.8622C83.4994 16.2301 83.6353 16.5085 83.9071 16.6974C84.1789 16.883 84.5252 16.9759 84.9462 16.9759ZM95.7688 14.8331V10.3636H97.2602V18H95.7986V16.6776H95.719C95.5434 17.0852 95.2617 17.425 94.8739 17.6967C94.4894 17.9652 94.0105 18.0994 93.4371 18.0994C92.9466 18.0994 92.5124 17.9917 92.1345 17.7763C91.76 17.5575 91.465 17.2344 91.2496 16.8068C91.0375 16.3793 90.9314 15.8506 90.9314 15.2209V10.3636H92.4179V15.0419C92.4179 15.5623 92.5621 15.9766 92.8504 16.2848C93.1388 16.593 93.5133 16.7472 93.974 16.7472C94.2524 16.7472 94.5292 16.6776 94.8043 16.5384C95.0827 16.3991 95.313 16.1887 95.4953 15.907C95.6809 15.6252 95.7721 15.2673 95.7688 14.8331ZM101.304 7.81818V18H99.8176V7.81818H101.304ZM106.086 18.169C105.602 18.169 105.165 18.0795 104.774 17.9006C104.383 17.7183 104.073 17.4548 103.844 17.1101C103.619 16.7654 103.506 16.3428 103.506 15.8423C103.506 15.4115 103.589 15.0568 103.755 14.7784C103.92 14.5 104.144 14.2796 104.426 14.1172C104.707 13.9548 105.022 13.8321 105.37 13.7493C105.718 13.6664 106.073 13.6035 106.434 13.5604C106.892 13.5073 107.263 13.4643 107.548 13.4311C107.833 13.3946 108.04 13.3366 108.169 13.2571C108.299 13.1776 108.363 13.0483 108.363 12.8693V12.8345C108.363 12.4003 108.241 12.0639 107.995 11.8253C107.753 11.5866 107.392 11.4673 106.911 11.4673C106.411 11.4673 106.017 11.5784 105.728 11.8004C105.443 12.0192 105.246 12.2628 105.137 12.5312L103.74 12.2131C103.905 11.7491 104.147 11.3745 104.465 11.0895C104.787 10.8011 105.157 10.5923 105.574 10.4631C105.992 10.3305 106.431 10.2642 106.892 10.2642C107.197 10.2642 107.52 10.3007 107.861 10.3736C108.206 10.4432 108.527 10.5724 108.826 10.7614C109.127 10.9503 109.374 11.2204 109.566 11.5717C109.759 11.9197 109.855 12.3722 109.855 12.929V18H108.403V16.956H108.343C108.247 17.1482 108.103 17.3371 107.911 17.5227C107.719 17.7083 107.472 17.8625 107.17 17.9851C106.868 18.1077 106.507 18.169 106.086 18.169ZM106.409 16.9759C106.82 16.9759 107.172 16.8946 107.463 16.7322C107.758 16.5698 107.982 16.3577 108.134 16.0959C108.29 15.8307 108.368 15.5473 108.368 15.2457V14.2614C108.315 14.3144 108.212 14.3641 108.06 14.4105C107.911 14.4536 107.74 14.4917 107.548 14.5249C107.356 14.5547 107.168 14.5829 106.986 14.6094C106.804 14.6326 106.651 14.6525 106.529 14.669C106.24 14.7055 105.977 14.7668 105.738 14.853C105.503 14.9392 105.314 15.0634 105.171 15.2259C105.032 15.3849 104.963 15.5971 104.963 15.8622C104.963 16.2301 105.099 16.5085 105.37 16.6974C105.642 16.883 105.988 16.9759 106.409 16.9759ZM118.117 12.228L116.77 12.4666C116.713 12.2943 116.624 12.1302 116.501 11.9744C116.382 11.8187 116.219 11.6911 116.014 11.5916C115.808 11.4922 115.552 11.4425 115.243 11.4425C114.822 11.4425 114.471 11.5369 114.189 11.7259C113.908 11.9115 113.767 12.1518 113.767 12.4467C113.767 12.7019 113.861 12.9074 114.05 13.0632C114.239 13.219 114.544 13.3466 114.965 13.446L116.178 13.7244C116.881 13.8868 117.404 14.1371 117.749 14.4751C118.094 14.8132 118.266 15.2524 118.266 15.7926C118.266 16.25 118.133 16.6577 117.868 17.0156C117.606 17.3703 117.24 17.6487 116.77 17.8509C116.302 18.053 115.76 18.1541 115.144 18.1541C114.289 18.1541 113.591 17.9718 113.051 17.6072C112.511 17.2393 112.179 16.7173 112.057 16.0412L113.493 15.8224C113.583 16.197 113.767 16.4804 114.045 16.6726C114.324 16.8615 114.687 16.956 115.134 16.956C115.621 16.956 116.011 16.8549 116.302 16.6527C116.594 16.4472 116.74 16.197 116.74 15.902C116.74 15.6634 116.65 15.4628 116.471 15.3004C116.296 15.138 116.026 15.0154 115.661 14.9325L114.368 14.6491C113.656 14.4867 113.129 14.2282 112.787 13.8736C112.449 13.5189 112.28 13.0698 112.28 12.5263C112.28 12.0755 112.406 11.6811 112.658 11.343C112.91 11.005 113.258 10.7415 113.702 10.5526C114.146 10.3603 114.655 10.2642 115.228 10.2642C116.054 10.2642 116.703 10.4432 117.177 10.8011C117.651 11.1558 117.964 11.6314 118.117 12.228Z" fill="black"/>
<rect x="51.6354" y="34.4745" width="127" height="21" rx="10.5" transform="rotate(-5 51.6354 34.4745)" fill="#8800E6"/>
<rect x="51.6354" y="34.4745" width="127" height="21" rx="10.5" transform="rotate(-5 51.6354 34.4745)" stroke="#F3EAFF"/>
<path d="M68.7569 37.5851L69.7077 48.4527L68.0627 48.5966L67.2558 39.374L67.1922 39.3796L64.7406 41.3051L64.6032 39.7344L67.1597 37.7248L68.7569 37.5851ZM77.0445 47.9926C76.2057 48.0624 75.47 47.904 74.8373 47.5173C74.2046 47.1306 73.6942 46.5319 73.306 45.721C72.9178 44.9101 72.672 43.9139 72.5686 42.7323C72.4656 41.5543 72.5349 40.5341 72.7767 39.6717C73.0221 38.8089 73.4227 38.1322 73.9787 37.6416C74.5381 37.1506 75.2336 36.8687 76.0649 36.796C76.8962 36.7233 77.6284 36.882 78.2614 37.2722C78.8941 37.6589 79.4044 38.2559 79.7923 39.0632C80.1834 39.8667 80.4305 40.8575 80.5336 42.0355C80.6373 43.2206 80.5684 44.2461 80.3269 45.1121C80.0851 45.9745 79.6863 46.6528 79.1307 47.147C78.5748 47.6377 77.8793 47.9195 77.0445 47.9926ZM76.9205 46.5758C77.6563 46.5114 78.1998 46.102 78.5509 45.3477C78.9055 44.593 79.0234 43.5365 78.9045 42.178C78.8256 41.2759 78.6634 40.5219 78.4179 39.916C78.1756 39.3063 77.8635 38.8559 77.4816 38.5649C77.1029 38.2701 76.6712 38.1439 76.1865 38.1863C75.4542 38.2504 74.9109 38.6615 74.5566 39.4197C74.2023 40.1779 74.0827 41.2346 74.1977 42.5898C74.2769 43.4954 74.4377 44.2531 74.68 44.8629C74.9255 45.4688 75.2374 45.9174 75.6158 46.2087C75.9939 46.4964 76.4288 46.6188 76.9205 46.5758ZM91.1274 46.7391C90.4694 46.7967 89.8674 46.68 89.3215 46.3891C88.7789 46.0944 88.3333 45.6468 87.9849 45.0463C87.6397 44.442 87.4286 43.6994 87.3516 42.8185C87.2745 41.9377 87.3554 41.1713 87.5942 40.5195C87.8366 39.8673 88.2015 39.3524 88.6889 38.9746C89.1763 38.5969 89.7472 38.3794 90.4017 38.3222C90.9076 38.2779 91.3218 38.3272 91.6444 38.4701C91.9703 38.6091 92.2279 38.7826 92.4172 38.9907C92.61 39.1984 92.7616 39.3829 92.872 39.5444L92.9675 39.536L92.6142 35.4978L94.2009 35.359L95.1516 46.2266L93.6022 46.3622L93.4912 45.0939L93.3585 45.1055C93.2782 45.2872 93.1576 45.4974 92.9966 45.7361C92.8393 45.9744 92.6122 46.1903 92.3154 46.3838C92.0187 46.5773 91.6226 46.6958 91.1274 46.7391ZM91.3592 45.3553C91.8156 45.3154 92.1906 45.1614 92.4844 44.8933C92.7815 44.6213 92.9925 44.2624 93.1175 43.8166C93.246 43.3705 93.2851 42.8608 93.235 42.2878C93.1855 41.7217 93.0608 41.2336 92.8609 40.8233C92.661 40.413 92.3933 40.1032 92.0577 39.8937C91.7221 39.6842 91.3226 39.5997 90.8592 39.6403C90.3816 39.6821 89.9945 39.8407 89.6978 40.1162C89.401 40.3917 89.19 40.7506 89.0648 41.1929C88.943 41.6348 88.9057 42.1247 88.9527 42.6624C89.0004 43.2072 89.1246 43.69 89.3254 44.1109C89.5262 44.5318 89.7969 44.8557 90.1376 45.0825C90.4815 45.3056 90.8887 45.3965 91.3592 45.3553ZM101.541 45.8334C100.738 45.9036 100.031 45.7925 99.4213 45.5002C98.8143 45.2039 98.326 44.7565 97.9564 44.1579C97.59 43.5554 97.3698 42.8314 97.2958 41.9859C97.2228 41.1511 97.3141 40.4016 97.5697 39.7376C97.8288 39.0733 98.224 38.5379 98.7552 38.1314C99.29 37.7246 99.9359 37.488 100.693 37.4218C101.153 37.3816 101.605 37.4186 102.05 37.533C102.495 37.6473 102.903 37.8522 103.275 38.1477C103.647 38.4431 103.954 38.8422 104.198 39.3449C104.441 39.844 104.595 40.4633 104.66 41.2027L104.709 41.7652L98.2298 42.332L98.1258 41.1434L103.05 40.7125C103.014 40.2951 102.896 39.9328 102.698 39.6258C102.5 39.3152 102.239 39.0796 101.915 38.919C101.594 38.7581 101.229 38.6957 100.818 38.7316C100.372 38.7706 99.9929 38.9143 99.6796 39.1627C99.3695 39.4073 99.1395 39.7126 98.9897 40.0786C98.8432 40.4407 98.7877 40.8252 98.8233 41.2321L98.9045 42.1607C98.9522 42.7055 99.0883 43.1605 99.3127 43.5259C99.5407 43.8909 99.8369 44.1591 100.201 44.3304C100.565 44.4982 100.979 44.5618 101.442 44.5213C101.743 44.495 102.014 44.4285 102.254 44.322C102.494 44.2119 102.696 44.0622 102.861 43.8731C103.027 43.684 103.146 43.4579 103.219 43.1948L104.745 43.3341C104.663 43.7868 104.481 44.193 104.199 44.5528C103.92 44.9087 103.555 45.1991 103.104 45.4239C102.656 45.6449 102.135 45.7814 101.541 45.8334ZM111.221 36.6076L112.808 36.4688L113.567 45.1502C113.615 45.695 113.556 46.1635 113.391 46.5558C113.229 46.9478 112.964 47.258 112.595 47.4863C112.23 47.7143 111.766 47.8529 111.204 47.9021C111.147 47.9071 111.094 47.9117 111.045 47.916C110.992 47.9207 110.937 47.9237 110.88 47.9251L110.76 46.5614C110.81 46.557 110.854 46.5532 110.893 46.5498C110.929 46.5467 110.969 46.5431 111.015 46.5391C111.39 46.5063 111.652 46.3818 111.801 46.1656C111.953 45.9526 112.013 45.6569 111.98 45.2784L111.221 36.6076ZM111.896 35.2813C111.62 35.3054 111.375 35.2342 111.161 35.0676C110.95 34.8971 110.833 34.6828 110.811 34.4245C110.788 34.1627 110.866 33.9313 111.044 33.7304C111.226 33.5255 111.455 33.4111 111.731 33.3869C112.007 33.3628 112.25 33.4359 112.461 33.6064C112.675 33.773 112.794 33.9872 112.817 34.249C112.839 34.5073 112.76 34.7388 112.578 34.9436C112.4 35.1446 112.172 35.2572 111.896 35.2813ZM121.12 40.5486L120.703 35.7781L122.295 35.6388L123.008 43.7895L121.448 43.926L121.325 42.5145L121.24 42.5219C121.09 42.9734 120.821 43.3623 120.433 43.6886C120.047 44.0111 119.549 44.1991 118.937 44.2526C118.413 44.2984 117.94 44.224 117.516 44.0293C117.096 43.8308 116.751 43.5135 116.481 43.0772C116.215 42.6407 116.052 42.0863 115.993 41.4142L115.54 36.2298L117.127 36.091L117.563 41.0843C117.612 41.6397 117.805 42.0685 118.141 42.3706C118.478 42.6726 118.892 42.8022 119.384 42.7591C119.681 42.7331 119.97 42.633 120.25 42.4587C120.534 42.2842 120.761 42.038 120.929 41.7203C121.101 41.4023 121.165 41.0117 121.12 40.5486ZM126.374 32.5443L127.324 43.4119L125.738 43.5507L124.787 32.6831L126.374 32.5443ZM131.22 38.1945L131.643 43.034L130.057 43.1728L129.106 32.3052L130.671 32.1683L131.025 36.2118L131.126 36.203C131.278 35.7476 131.54 35.3736 131.91 35.081C132.28 34.7884 132.782 34.6144 133.415 34.559C133.974 34.5101 134.472 34.5824 134.91 34.7758C135.351 34.9689 135.706 35.2836 135.976 35.7198C136.249 36.1522 136.415 36.708 136.475 37.3872L136.928 42.5716L135.342 42.7104L134.905 37.7171C134.853 37.1192 134.658 36.6692 134.322 36.3672C133.985 36.0616 133.542 35.9327 132.994 35.9807C132.619 36.0135 132.29 36.1225 132.006 36.3077C131.727 36.4926 131.515 36.7464 131.373 37.069C131.233 37.3878 131.182 37.763 131.22 38.1945ZM143.091 42.1982C142.327 42.2651 141.645 42.1483 141.045 41.8479C140.444 41.5475 139.959 41.0962 139.589 40.4941C139.219 39.8919 138.998 39.1699 138.924 38.3279C138.85 37.4824 138.943 36.7293 139.202 36.0685C139.462 35.4077 139.861 34.8773 140.4 34.4773C140.939 34.0772 141.59 33.8438 142.354 33.7769C143.118 33.71 143.801 33.8268 144.401 34.1272C145.001 34.4276 145.486 34.8807 145.856 35.4863C146.227 36.092 146.449 36.8176 146.523 37.6631C146.596 38.5051 146.503 39.2547 146.244 39.9119C145.984 40.5692 145.584 41.0978 145.046 41.4979C144.507 41.8979 143.855 42.1314 143.091 42.1982ZM142.98 40.8658C143.475 40.8225 143.874 40.6557 144.177 40.3655C144.479 40.0752 144.689 39.7057 144.807 39.2569C144.928 38.8079 144.966 38.3216 144.92 37.798C144.874 37.278 144.753 36.8074 144.556 36.3862C144.362 35.9611 144.09 35.6302 143.742 35.3933C143.393 35.1565 142.971 35.0597 142.476 35.103C141.977 35.1467 141.574 35.3156 141.269 35.6097C140.966 35.9035 140.755 36.2767 140.634 36.7292C140.517 37.178 140.48 37.6624 140.526 38.1824C140.572 38.706 140.692 39.1785 140.885 39.6C141.083 40.0212 141.355 40.3485 141.704 40.5818C142.056 40.8148 142.481 40.9095 142.98 40.8658ZM150.299 41.5034C150.009 41.5288 149.75 41.448 149.524 41.2611C149.297 41.0707 149.17 40.8286 149.145 40.535C149.119 40.2449 149.202 39.9882 149.393 39.7647C149.583 39.5377 149.824 39.4115 150.114 39.3862C150.404 39.3608 150.662 39.4433 150.889 39.6338C151.116 39.8207 151.242 40.0592 151.267 40.3493C151.284 40.5439 151.25 40.7269 151.166 40.8982C151.084 41.0658 150.968 41.2043 150.817 41.3137C150.666 41.4232 150.494 41.4864 150.299 41.5034ZM153.099 42.2109L168.042 40.9035L166.735 25.9606L151.792 27.2679L153.099 42.2109Z" fill="#F3EAFF"/>
</svg>
