<svg width="173" height="56" viewBox="0 0 173 56" fill="none" xmlns="http://www.w3.org/2000/svg">
<rect width="127" height="25" fill="#0DFE5B"/>
<path d="M10.7537 7.81818V18H9.21744V7.81818H10.7537ZM14.9181 13.4659V18H13.4316V10.3636H14.8584V11.6065H14.9529C15.1285 11.2022 15.4036 10.8774 15.7781 10.6321C16.156 10.3868 16.6316 10.2642 17.205 10.2642C17.7254 10.2642 18.1811 10.3736 18.5722 10.5923C18.9633 10.8078 19.2665 11.1293 19.482 11.5568C19.6974 11.9844 19.8051 12.513 19.8051 13.1428V18H18.3186V13.3217C18.3186 12.7682 18.1745 12.3357 17.8861 12.0241C17.5977 11.7093 17.2017 11.5518 16.6979 11.5518C16.3532 11.5518 16.0466 11.6264 15.7781 11.7756C15.513 11.9247 15.3025 12.1435 15.1468 12.4318C14.9943 12.7169 14.9181 13.0616 14.9181 13.4659ZM22.3587 18V10.3636H23.8452V18H22.3587ZM22.4979 9.34446L23.6613 7.05256H25.2273L23.6862 9.34446H22.4979ZM29.6217 18.1541C28.8826 18.1541 28.2462 17.9867 27.7126 17.652C27.1823 17.3139 26.7746 16.8482 26.4896 16.255C26.2045 15.6617 26.062 14.9822 26.062 14.2166C26.062 13.4411 26.2079 12.7566 26.4995 12.1634C26.7912 11.5668 27.2022 11.1011 27.7325 10.7663C28.2628 10.4316 28.8876 10.2642 29.6068 10.2642C30.1868 10.2642 30.7038 10.3719 31.1579 10.5874C31.612 10.7995 31.9782 11.0978 32.2566 11.4822C32.5384 11.8667 32.7057 12.3158 32.7588 12.8295H31.312C31.2325 12.4716 31.0502 12.1634 30.7652 11.9048C30.4834 11.6463 30.1056 11.517 29.6316 11.517C29.2173 11.517 28.8544 11.6264 28.5429 11.8452C28.2346 12.0606 27.9943 12.3688 27.822 12.7699C27.6496 13.1676 27.5635 13.6383 27.5635 14.1818C27.5635 14.7386 27.648 15.2192 27.817 15.6236C27.986 16.0279 28.2247 16.3411 28.5329 16.5632C28.8445 16.7853 29.2107 16.8963 29.6316 16.8963C29.9134 16.8963 30.1686 16.8449 30.3973 16.7422C30.6293 16.6361 30.8232 16.4853 30.9789 16.2898C31.138 16.0942 31.2491 15.8589 31.312 15.5838H32.7588C32.7057 16.0777 32.545 16.5185 32.2765 16.9062C32.0081 17.294 31.6484 17.599 31.1977 17.821C30.7502 18.0431 30.2249 18.1541 29.6217 18.1541ZM34.9084 18V10.3636H36.3949V18H34.9084ZM35.6591 9.18537C35.4006 9.18537 35.1786 9.09919 34.9929 8.92685C34.8107 8.75118 34.7195 8.54238 34.7195 8.30043C34.7195 8.05516 34.8107 7.84635 34.9929 7.67401C35.1786 7.49834 35.4006 7.41051 35.6591 7.41051C35.9177 7.41051 36.1381 7.49834 36.3204 7.67401C36.506 7.84635 36.5988 8.05516 36.5988 8.30043C36.5988 8.54238 36.506 8.75118 36.3204 8.92685C36.1381 9.09919 35.9177 9.18537 35.6591 9.18537ZM42.1714 18.1541C41.4555 18.1541 40.8307 17.9901 40.2971 17.6619C39.7635 17.3338 39.3492 16.8748 39.0542 16.2848C38.7592 15.6948 38.6117 15.0054 38.6117 14.2166C38.6117 13.4245 38.7592 12.7318 39.0542 12.1385C39.3492 11.5452 39.7635 11.0845 40.2971 10.7564C40.8307 10.4283 41.4555 10.2642 42.1714 10.2642C42.8873 10.2642 43.512 10.4283 44.0457 10.7564C44.5793 11.0845 44.9936 11.5452 45.2886 12.1385C45.5835 12.7318 45.731 13.4245 45.731 14.2166C45.731 15.0054 45.5835 15.6948 45.2886 16.2848C44.9936 16.8748 44.5793 17.3338 44.0457 17.6619C43.512 17.9901 42.8873 18.1541 42.1714 18.1541ZM42.1763 16.9062C42.6404 16.9062 43.0248 16.7836 43.3298 16.5384C43.6347 16.2931 43.8601 15.9666 44.0059 15.5589C44.155 15.1513 44.2296 14.7022 44.2296 14.2116C44.2296 13.7244 44.155 13.277 44.0059 12.8693C43.8601 12.4583 43.6347 12.1286 43.3298 11.88C43.0248 11.6314 42.6404 11.5071 42.1763 11.5071C41.709 11.5071 41.3212 11.6314 41.013 11.88C40.7081 12.1286 40.481 12.4583 40.3319 12.8693C40.1861 13.277 40.1131 13.7244 40.1131 14.2116C40.1131 14.7022 40.1861 15.1513 40.3319 15.5589C40.481 15.9666 40.7081 16.2931 41.013 16.5384C41.3212 16.7836 41.709 16.9062 42.1763 16.9062ZM55.074 18.1491C54.4576 18.1491 53.9074 17.9917 53.4235 17.6768C52.9429 17.3587 52.565 16.9062 52.29 16.3196C52.0182 15.7296 51.8823 15.022 51.8823 14.1967C51.8823 13.3714 52.0198 12.6655 52.2949 12.0788C52.5733 11.4922 52.9545 11.0431 53.4384 10.7315C53.9223 10.42 54.4708 10.2642 55.084 10.2642C55.5579 10.2642 55.9391 10.3438 56.2275 10.5028C56.5191 10.6586 56.7445 10.8409 56.9036 11.0497C57.066 11.2585 57.1919 11.4425 57.2814 11.6016H57.3709V7.81818H58.8574V18H57.4057V16.8118H57.2814C57.1919 16.9742 57.0627 17.1598 56.8936 17.3686C56.7279 17.5774 56.4992 17.7597 56.2076 17.9155C55.9159 18.0713 55.5381 18.1491 55.074 18.1491ZM55.4022 16.8814C55.8297 16.8814 56.191 16.7687 56.486 16.5433C56.7843 16.3146 57.0097 15.9981 57.1621 15.5938C57.3179 15.1894 57.3958 14.7187 57.3958 14.1818C57.3958 13.6515 57.3195 13.1875 57.1671 12.7898C57.0146 12.392 56.7909 12.0821 56.4959 11.8601C56.2009 11.638 55.8364 11.527 55.4022 11.527C54.9547 11.527 54.5819 11.643 54.2836 11.875C53.9853 12.107 53.7599 12.4235 53.6074 12.8246C53.4583 13.2256 53.3837 13.678 53.3837 14.1818C53.3837 14.6922 53.4599 15.1513 53.6124 15.5589C53.7649 15.9666 53.9902 16.2898 54.2885 16.5284C54.5901 16.7637 54.9614 16.8814 55.4022 16.8814ZM63.7614 18.169C63.2775 18.169 62.84 18.0795 62.4489 17.9006C62.0578 17.7183 61.7479 17.4548 61.5192 17.1101C61.2938 16.7654 61.1811 16.3428 61.1811 15.8423C61.1811 15.4115 61.264 15.0568 61.4297 14.7784C61.5954 14.5 61.8191 14.2796 62.1008 14.1172C62.3826 13.9548 62.6974 13.8321 63.0454 13.7493C63.3935 13.6664 63.7481 13.6035 64.1094 13.5604C64.5668 13.5073 64.938 13.4643 65.223 13.4311C65.508 13.3946 65.7152 13.3366 65.8445 13.2571C65.9737 13.1776 66.0383 13.0483 66.0383 12.8693V12.8345C66.0383 12.4003 65.9157 12.0639 65.6704 11.8253C65.4285 11.5866 65.0672 11.4673 64.5866 11.4673C64.0862 11.4673 63.6918 11.5784 63.4034 11.8004C63.1184 12.0192 62.9212 12.2628 62.8118 12.5312L61.4148 12.2131C61.5805 11.7491 61.8224 11.3745 62.1406 11.0895C62.4621 10.8011 62.8317 10.5923 63.2493 10.4631C63.6669 10.3305 64.1061 10.2642 64.5668 10.2642C64.8717 10.2642 65.1948 10.3007 65.5362 10.3736C65.8809 10.4432 66.2024 10.5724 66.5007 10.7614C66.8023 10.9503 67.0492 11.2204 67.2415 11.5717C67.4337 11.9197 67.5298 12.3722 67.5298 12.929V18H66.0781V16.956H66.0185C65.9223 17.1482 65.7782 17.3371 65.5859 17.5227C65.3937 17.7083 65.1468 17.8625 64.8452 17.9851C64.5436 18.1077 64.1823 18.169 63.7614 18.169ZM64.0845 16.9759C64.4955 16.9759 64.8468 16.8946 65.1385 16.7322C65.4335 16.5698 65.6572 16.3577 65.8097 16.0959C65.9654 15.8307 66.0433 15.5473 66.0433 15.2457V14.2614C65.9903 14.3144 65.8875 14.3641 65.7351 14.4105C65.5859 14.4536 65.4152 14.4917 65.223 14.5249C65.0308 14.5547 64.8435 14.5829 64.6612 14.6094C64.4789 14.6326 64.3265 14.6525 64.2038 14.669C63.9155 14.7055 63.652 14.7668 63.4133 14.853C63.178 14.9392 62.9891 15.0634 62.8466 15.2259C62.7074 15.3849 62.6378 15.5971 62.6378 15.8622C62.6378 16.2301 62.7737 16.5085 63.0454 16.6974C63.3172 16.883 63.6636 16.9759 64.0845 16.9759ZM75.7921 12.228L74.4448 12.4666C74.3884 12.2943 74.2989 12.1302 74.1763 11.9744C74.057 11.8187 73.8946 11.6911 73.6891 11.5916C73.4836 11.4922 73.2267 11.4425 72.9185 11.4425C72.4976 11.4425 72.1462 11.5369 71.8645 11.7259C71.5828 11.9115 71.4419 12.1518 71.4419 12.4467C71.4419 12.7019 71.5364 12.9074 71.7253 13.0632C71.9142 13.219 72.2191 13.3466 72.6401 13.446L73.8531 13.7244C74.5558 13.8868 75.0795 14.1371 75.4242 14.4751C75.7689 14.8132 75.9412 15.2524 75.9412 15.7926C75.9412 16.25 75.8086 16.6577 75.5435 17.0156C75.2816 17.3703 74.9154 17.6487 74.4448 17.8509C73.9774 18.053 73.4355 18.1541 72.819 18.1541C71.9639 18.1541 71.2663 17.9718 70.726 17.6072C70.1858 17.2393 69.8543 16.7173 69.7317 16.0412L71.1685 15.8224C71.258 16.197 71.4419 16.4804 71.7203 16.6726C71.9987 16.8615 72.3617 16.956 72.8091 16.956C73.2963 16.956 73.6858 16.8549 73.9774 16.6527C74.2691 16.4472 74.4149 16.197 74.4149 15.902C74.4149 15.6634 74.3254 15.4628 74.1465 15.3004C73.9708 15.138 73.7007 15.0154 73.3361 14.9325L72.0435 14.6491C71.3309 14.4867 70.8039 14.2282 70.4625 13.8736C70.1244 13.5189 69.9554 13.0698 69.9554 12.5263C69.9554 12.0755 70.0814 11.6811 70.3333 11.343C70.5851 11.005 70.9332 10.7415 71.3773 10.5526C71.8214 10.3603 72.3302 10.2642 72.9036 10.2642C73.7288 10.2642 74.3785 10.4432 74.8524 10.8011C75.3264 11.1558 75.6396 11.6314 75.7921 12.228ZM84.623 18.169C84.1391 18.169 83.7016 18.0795 83.3105 17.9006C82.9194 17.7183 82.6095 17.4548 82.3808 17.1101C82.1554 16.7654 82.0427 16.3428 82.0427 15.8423C82.0427 15.4115 82.1256 15.0568 82.2913 14.7784C82.457 14.5 82.6808 14.2796 82.9625 14.1172C83.2442 13.9548 83.5591 13.8321 83.9071 13.7493C84.2551 13.6664 84.6097 13.6035 84.971 13.5604C85.4284 13.5073 85.7996 13.4643 86.0847 13.4311C86.3697 13.3946 86.5768 13.3366 86.7061 13.2571C86.8354 13.1776 86.9 13.0483 86.9 12.8693V12.8345C86.9 12.4003 86.7774 12.0639 86.5321 11.8253C86.2901 11.5866 85.9289 11.4673 85.4483 11.4673C84.9478 11.4673 84.5534 11.5784 84.265 11.8004C83.98 12.0192 83.7828 12.2628 83.6734 12.5312L82.2764 12.2131C82.4421 11.7491 82.6841 11.3745 83.0023 11.0895C83.3238 10.8011 83.6933 10.5923 84.1109 10.4631C84.5285 10.3305 84.9677 10.2642 85.4284 10.2642C85.7333 10.2642 86.0565 10.3007 86.3979 10.3736C86.7426 10.4432 87.0641 10.5724 87.3624 10.7614C87.664 10.9503 87.9109 11.2204 88.1031 11.5717C88.2954 11.9197 88.3915 12.3722 88.3915 12.929V18H86.9398V16.956H86.8801C86.784 17.1482 86.6398 17.3371 86.4476 17.5227C86.2553 17.7083 86.0084 17.8625 85.7068 17.9851C85.4052 18.1077 85.0439 18.169 84.623 18.169ZM84.9462 16.9759C85.3571 16.9759 85.7085 16.8946 86.0001 16.7322C86.2951 16.5698 86.5188 16.3577 86.6713 16.0959C86.8271 15.8307 86.905 15.5473 86.905 15.2457V14.2614C86.8519 14.3144 86.7492 14.3641 86.5967 14.4105C86.4476 14.4536 86.2769 14.4917 86.0847 14.5249C85.8924 14.5547 85.7052 14.5829 85.5229 14.6094C85.3406 14.6326 85.1881 14.6525 85.0655 14.669C84.7771 14.7055 84.5136 14.7668 84.275 14.853C84.0397 14.9392 83.8508 15.0634 83.7082 15.2259C83.569 15.3849 83.4994 15.5971 83.4994 15.8622C83.4994 16.2301 83.6353 16.5085 83.9071 16.6974C84.1789 16.883 84.5252 16.9759 84.9462 16.9759ZM95.7688 14.8331V10.3636H97.2602V18H95.7986V16.6776H95.719C95.5434 17.0852 95.2617 17.425 94.8739 17.6967C94.4894 17.9652 94.0105 18.0994 93.4371 18.0994C92.9466 18.0994 92.5124 17.9917 92.1345 17.7763C91.76 17.5575 91.465 17.2344 91.2496 16.8068C91.0375 16.3793 90.9314 15.8506 90.9314 15.2209V10.3636H92.4179V15.0419C92.4179 15.5623 92.5621 15.9766 92.8504 16.2848C93.1388 16.593 93.5133 16.7472 93.974 16.7472C94.2524 16.7472 94.5292 16.6776 94.8043 16.5384C95.0827 16.3991 95.313 16.1887 95.4953 15.907C95.6809 15.6252 95.7721 15.2673 95.7688 14.8331ZM101.304 7.81818V18H99.8176V7.81818H101.304ZM106.086 18.169C105.602 18.169 105.165 18.0795 104.774 17.9006C104.383 17.7183 104.073 17.4548 103.844 17.1101C103.619 16.7654 103.506 16.3428 103.506 15.8423C103.506 15.4115 103.589 15.0568 103.755 14.7784C103.92 14.5 104.144 14.2796 104.426 14.1172C104.707 13.9548 105.022 13.8321 105.37 13.7493C105.718 13.6664 106.073 13.6035 106.434 13.5604C106.892 13.5073 107.263 13.4643 107.548 13.4311C107.833 13.3946 108.04 13.3366 108.169 13.2571C108.299 13.1776 108.363 13.0483 108.363 12.8693V12.8345C108.363 12.4003 108.241 12.0639 107.995 11.8253C107.753 11.5866 107.392 11.4673 106.911 11.4673C106.411 11.4673 106.017 11.5784 105.728 11.8004C105.443 12.0192 105.246 12.2628 105.137 12.5312L103.74 12.2131C103.905 11.7491 104.147 11.3745 104.465 11.0895C104.787 10.8011 105.157 10.5923 105.574 10.4631C105.992 10.3305 106.431 10.2642 106.892 10.2642C107.197 10.2642 107.52 10.3007 107.861 10.3736C108.206 10.4432 108.527 10.5724 108.826 10.7614C109.127 10.9503 109.374 11.2204 109.566 11.5717C109.759 11.9197 109.855 12.3722 109.855 12.929V18H108.403V16.956H108.343C108.247 17.1482 108.103 17.3371 107.911 17.5227C107.719 17.7083 107.472 17.8625 107.17 17.9851C106.868 18.1077 106.507 18.169 106.086 18.169ZM106.409 16.9759C106.82 16.9759 107.172 16.8946 107.463 16.7322C107.758 16.5698 107.982 16.3577 108.134 16.0959C108.29 15.8307 108.368 15.5473 108.368 15.2457V14.2614C108.315 14.3144 108.212 14.3641 108.06 14.4105C107.911 14.4536 107.74 14.4917 107.548 14.5249C107.356 14.5547 107.168 14.5829 106.986 14.6094C106.804 14.6326 106.651 14.6525 106.529 14.669C106.24 14.7055 105.977 14.7668 105.738 14.853C105.503 14.9392 105.314 15.0634 105.171 15.2259C105.032 15.3849 104.963 15.5971 104.963 15.8622C104.963 16.2301 105.099 16.5085 105.37 16.6974C105.642 16.883 105.988 16.9759 106.409 16.9759ZM118.117 12.228L116.77 12.4666C116.713 12.2943 116.624 12.1302 116.501 11.9744C116.382 11.8187 116.219 11.6911 116.014 11.5916C115.808 11.4922 115.552 11.4425 115.243 11.4425C114.822 11.4425 114.471 11.5369 114.189 11.7259C113.908 11.9115 113.767 12.1518 113.767 12.4467C113.767 12.7019 113.861 12.9074 114.05 13.0632C114.239 13.219 114.544 13.3466 114.965 13.446L116.178 13.7244C116.881 13.8868 117.404 14.1371 117.749 14.4751C118.094 14.8132 118.266 15.2524 118.266 15.7926C118.266 16.25 118.133 16.6577 117.868 17.0156C117.606 17.3703 117.24 17.6487 116.77 17.8509C116.302 18.053 115.76 18.1541 115.144 18.1541C114.289 18.1541 113.591 17.9718 113.051 17.6072C112.511 17.2393 112.179 16.7173 112.057 16.0412L113.493 15.8224C113.583 16.197 113.767 16.4804 114.045 16.6726C114.324 16.8615 114.687 16.956 115.134 16.956C115.621 16.956 116.011 16.8549 116.302 16.6527C116.594 16.4472 116.74 16.197 116.74 15.902C116.74 15.6634 116.65 15.4628 116.471 15.3004C116.296 15.138 116.026 15.0154 115.661 14.9325L114.368 14.6491C113.656 14.4867 113.129 14.2282 112.787 13.8736C112.449 13.5189 112.28 13.0698 112.28 12.5263C112.28 12.0755 112.406 11.6811 112.658 11.343C112.91 11.005 113.258 10.7415 113.702 10.5526C114.146 10.3603 114.655 10.2642 115.228 10.2642C116.054 10.2642 116.703 10.4432 117.177 10.8011C117.651 11.1558 117.964 11.6314 118.117 12.228Z" fill="black"/>
<rect x="51.6354" y="33.7773" width="119" height="21" rx="10.5" transform="rotate(-5 51.6354 33.7773)" fill="#8800E6"/>
<rect x="51.6354" y="33.7773" width="119" height="21" rx="10.5" transform="rotate(-5 51.6354 33.7773)" stroke="#F3EAFF"/>
<path d="M69.22 47.9478C68.5549 48.006 67.9459 47.9309 67.393 47.7226C66.8433 47.5105 66.3914 47.1936 66.0372 46.7718C65.683 46.3501 65.4701 45.8519 65.3985 45.2771L66.9904 45.1378C67.0702 45.6014 67.3107 45.9671 67.712 46.235C68.1133 46.5029 68.5757 46.6139 69.0993 46.5681C69.5167 46.5316 69.878 46.4037 70.1832 46.1845C70.4917 45.9615 70.723 45.6721 70.8773 45.3164C71.0351 44.9604 71.0949 44.5648 71.0568 44.1297C71.0182 43.6875 70.8881 43.3014 70.6668 42.9714C70.4454 42.6415 70.158 42.3921 69.8046 42.2234C69.4547 42.0544 69.0639 41.987 68.632 42.0212C68.303 42.05 67.9771 42.1355 67.6545 42.2778C67.3319 42.4201 67.076 42.5922 66.8869 42.7942L65.3657 42.7027L65.4968 37.173L71.4719 36.6503L71.5949 38.0565L66.9836 38.4599L66.9047 41.5307L66.9684 41.5251C67.1627 41.3014 67.4289 41.1052 67.7671 40.9366C68.1088 40.7677 68.4813 40.6656 68.8846 40.6303C69.5461 40.5724 70.1489 40.6783 70.6929 40.948C71.2405 41.2173 71.6867 41.6114 72.0315 42.1302C72.3796 42.6451 72.5826 43.2547 72.6407 43.959C72.7058 44.6627 72.6016 45.3046 72.3279 45.8846C72.0578 46.4643 71.6537 46.9382 71.1155 47.3061C70.5806 47.6701 69.9487 47.884 69.22 47.9478ZM83.1226 46.7422C82.4646 46.7997 81.8627 46.6831 81.3168 46.3922C80.7741 46.0974 80.3286 45.6498 79.9802 45.0494C79.635 44.4451 79.4239 43.7025 79.3468 42.8216C79.2697 41.9407 79.3506 41.1744 79.5894 40.5225C79.8318 39.8704 80.1967 39.3554 80.6841 38.9777C81.1715 38.6 81.7424 38.3825 82.3969 38.3252C82.9028 38.281 83.317 38.3303 83.6397 38.4732C83.9655 38.6122 84.2231 38.7857 84.4124 38.9937C84.6053 39.2014 84.7569 39.386 84.8672 39.5475L84.9628 39.5391L84.6095 35.5009L86.1961 35.3621L87.1469 46.2297L85.5974 46.3652L85.4864 45.097L85.3538 45.1086C85.2734 45.2903 85.1528 45.5005 84.9919 45.7391C84.8345 45.9775 84.6074 46.1934 84.3106 46.3869C84.0139 46.5804 83.6179 46.6988 83.1226 46.7422ZM83.3544 45.3584C83.8108 45.3184 84.1859 45.1644 84.4797 44.8963C84.7767 44.6244 84.9877 44.2655 85.1127 43.8197C85.2412 43.3735 85.2804 42.8639 85.2302 42.2908C85.1807 41.7248 85.056 41.2366 84.8561 40.8264C84.6563 40.4161 84.3885 40.1062 84.053 39.8967C83.7174 39.6873 83.3179 39.6028 82.8544 39.6433C82.3769 39.6851 81.9897 39.8438 81.693 40.1193C81.3963 40.3947 81.1853 40.7536 81.06 41.1959C80.9382 41.6379 80.9009 42.1277 80.9479 42.6655C80.9956 43.2103 81.1198 43.6931 81.3206 44.114C81.5214 44.5349 81.7922 44.8588 82.1328 45.0856C82.4767 45.3086 82.8839 45.3995 83.3544 45.3584ZM93.5364 45.8364C92.7333 45.9067 92.0267 45.7956 91.4165 45.5032C90.8095 45.207 90.3212 44.7596 89.9516 44.1609C89.5852 43.5585 89.365 42.8345 89.2911 41.989C89.218 41.1541 89.3093 40.4047 89.5649 39.7407C89.824 39.0764 90.2192 38.5409 90.7504 38.1344C91.2852 37.7276 91.9311 37.4911 92.6882 37.4249C93.148 37.3846 93.6004 37.4217 94.0453 37.536C94.4902 37.6504 94.8985 37.8553 95.2701 38.1507C95.6417 38.4462 95.9494 38.8452 96.193 39.3479C96.4363 39.8471 96.5902 40.4664 96.6549 41.2057L96.7041 41.7682L90.225 42.3351L90.121 41.1464L95.0454 40.7156C95.0088 40.2982 94.8916 39.9359 94.6936 39.6288C94.4953 39.3182 94.2341 39.0826 93.9099 38.9221C93.5893 38.7612 93.2238 38.6987 92.8134 38.7346C92.3677 38.7736 91.9882 38.9173 91.6748 39.1658C91.3647 39.4103 91.1347 39.7156 90.985 40.0816C90.8384 40.4438 90.7829 40.8283 90.8185 41.2351L90.8998 42.1637C90.9474 42.7085 91.0835 43.1636 91.3079 43.529C91.5359 43.894 91.8321 44.1622 92.1964 44.3335C92.5605 44.5013 92.9742 44.5649 93.4376 44.5243C93.7383 44.498 94.0088 44.4316 94.249 44.325C94.4889 44.2149 94.6914 44.0653 94.8567 43.8762C95.0219 43.687 95.1412 43.4609 95.2144 43.1979L96.7398 43.3371C96.6582 43.7899 96.4763 44.1961 96.1941 44.5559C95.9151 44.9118 95.5502 45.2022 95.0993 45.427C94.6517 45.6479 94.1307 45.7844 93.5364 45.8364ZM103.216 36.6107L104.803 36.4719L105.562 45.1532C105.61 45.698 105.551 46.1666 105.386 46.5589C105.224 46.9509 104.959 47.2611 104.59 47.4894C104.225 47.7174 103.762 47.856 103.199 47.9052C103.143 47.9101 103.09 47.9148 103.04 47.9191C102.987 47.9237 102.932 47.9268 102.875 47.9282L102.756 46.5644C102.805 46.5601 102.849 46.5562 102.888 46.5528C102.924 46.5497 102.964 46.5462 103.01 46.5421C103.385 46.5093 103.647 46.3848 103.796 46.1687C103.948 45.9557 104.008 45.6599 103.975 45.2814L103.216 36.6107ZM103.892 35.2844C103.616 35.3085 103.371 35.2373 103.156 35.0706C102.945 34.9002 102.829 34.6858 102.806 34.4276C102.783 34.1658 102.861 33.9344 103.039 33.7334C103.221 33.5286 103.45 33.4141 103.726 33.39C104.002 33.3658 104.245 33.439 104.456 33.6095C104.67 33.7761 104.789 33.9903 104.812 34.2521C104.834 34.5103 104.755 34.7419 104.573 34.9467C104.395 35.1477 104.168 35.2602 103.892 35.2844ZM113.116 40.5516L112.698 35.7811L114.29 35.6419L115.003 43.7925L113.443 43.929L113.32 42.5175L113.235 42.525C113.085 42.9765 112.816 43.3654 112.428 43.6917C112.043 44.0141 111.544 44.2021 110.932 44.2557C110.408 44.3015 109.935 44.2271 109.511 44.0324C109.091 43.8339 108.746 43.5165 108.476 43.0803C108.21 42.6437 108.048 42.0894 107.989 41.4172L107.535 36.2329L109.122 36.094L109.559 41.0874C109.607 41.6428 109.8 42.0715 110.136 42.3736C110.473 42.6757 110.887 42.8052 111.379 42.7622C111.676 42.7362 111.965 42.6361 112.245 42.4618C112.53 42.2872 112.756 42.0411 112.924 41.7233C113.096 41.4053 113.16 41.0147 113.116 40.5516ZM118.369 32.5473L119.32 43.4149L117.733 43.5537L116.782 32.6862L118.369 32.5473ZM123.215 38.1976L123.638 43.0371L122.052 43.1759L121.101 32.3083L122.666 32.1714L123.02 36.2149L123.121 36.206C123.274 35.7507 123.535 35.3767 123.905 35.0841C124.275 34.7915 124.777 34.6175 125.41 34.5621C125.969 34.5132 126.467 34.5854 126.905 34.7788C127.346 34.972 127.701 35.2866 127.971 35.7229C128.244 36.1553 128.411 36.7111 128.47 37.3903L128.924 42.5747L127.337 42.7135L126.9 37.7201C126.848 37.1223 126.653 36.6723 126.317 36.3702C125.98 36.0646 125.537 35.9358 124.989 35.9838C124.614 36.0166 124.285 36.1256 124.002 36.3108C123.722 36.4957 123.511 36.7494 123.368 37.072C123.228 37.3908 123.177 37.766 123.215 38.1976ZM135.086 42.2013C134.322 42.2681 133.64 42.1514 133.04 41.851C132.44 41.5506 131.954 41.0993 131.585 40.4971C131.215 39.895 130.993 39.1729 130.919 38.331C130.845 37.4855 130.938 36.7324 131.197 36.0716C131.457 35.4108 131.856 34.8804 132.395 34.4803C132.934 34.0803 133.585 33.8468 134.349 33.78C135.114 33.7131 135.796 33.8299 136.396 34.1303C136.996 34.4307 137.481 34.8837 137.852 35.4894C138.222 36.0951 138.444 36.8207 138.518 37.6662C138.592 38.5081 138.499 39.2577 138.239 39.915C137.979 40.5722 137.58 41.1009 137.041 41.5009C136.502 41.901 135.85 42.1344 135.086 42.2013ZM134.975 40.8689C135.47 40.8256 135.869 40.6588 136.172 40.3685C136.474 40.0783 136.684 39.7088 136.802 39.26C136.923 38.811 136.961 38.3246 136.915 37.8011C136.869 37.281 136.748 36.8104 136.551 36.3892C136.357 35.9642 136.085 35.6332 135.737 35.3964C135.388 35.1595 134.966 35.0628 134.471 35.1061C133.972 35.1497 133.57 35.3186 133.264 35.6127C132.962 35.9065 132.75 36.2797 132.629 36.7323C132.512 37.1811 132.476 37.6654 132.521 38.1855C132.567 38.709 132.687 39.1816 132.881 39.6031C133.078 40.0243 133.351 40.3515 133.699 40.5849C134.051 40.8179 134.476 40.9125 134.975 40.8689ZM142.294 41.5065C142.004 41.5319 141.746 41.4511 141.519 41.2642C141.292 41.0737 141.166 40.8317 141.14 40.5381C141.115 40.248 141.197 39.9912 141.388 39.7678C141.579 39.5408 141.819 39.4146 142.109 39.3892C142.399 39.3639 142.658 39.4464 142.885 39.6369C143.111 39.8238 143.237 40.0623 143.263 40.3524C143.28 40.5469 143.246 40.7299 143.161 40.9013C143.079 41.0689 142.963 41.2074 142.812 41.3168C142.661 41.4262 142.489 41.4895 142.294 41.5065ZM145.094 42.2139L160.037 40.9066L158.73 25.9637L143.787 27.271L145.094 42.2139Z" fill="#F3EAFF"/>
</svg>
